{"accessors": [{"bufferView": 0, "byteOffset": 0, "componentType": 5123, "count": 36, "type": "SCALAR", "max": [23], "min": [0]}, {"bufferView": 1, "byteOffset": 0, "componentType": 5126, "count": 24, "type": "VEC3", "max": [1.0, 1.0, 1.0], "min": [-1.0, -1.0, -1.0]}, {"bufferView": 1, "byteOffset": 288, "componentType": 5126, "count": 24, "type": "VEC3", "max": [0.5, 0.5, 0.5], "min": [-0.5, -0.5, -0.5]}, {"bufferView": 2, "byteOffset": 0, "componentType": 5126, "count": 24, "type": "VEC2", "max": [6.0, 1.0], "min": [0.0, 0.0]}], "asset": {"generator": "COLLADA2GLTF", "version": "2.0"}, "buffers": [{"uri": "Slide2.bin", "byteLength": 840}], "bufferViews": [{"buffer": 0, "byteOffset": 768, "byteLength": 72, "target": 34963}, {"buffer": 0, "byteOffset": 0, "byteLength": 576, "byteStride": 12, "target": 34962}, {"buffer": 0, "byteOffset": 576, "byteLength": 192, "byteStride": 8, "target": 34962}], "images": [{"uri": "Slide2.png"}], "materials": [{"name": "Slide2", "pbrMetallicRoughness": {"baseColorTexture": {"index": 0}, "metallicFactor": 0.0}}], "meshes": [{"name": "Slide2", "primitives": [{"attributes": {"POSITION": 2, "NORMAL": 1, "TEXCOORD_0": 3}, "indices": 0, "material": 0, "mode": 4}]}], "nodes": [{"name": "Slide2", "children": [1], "matrix": [0.01, 0.0, 0.0, 0.0, 0.0, 0.0, -2.0, 0.0, 0.0, 1.5, 0.0, 0.0, 0.0, 0.0, 0.0, 1.0]}, {"mesh": 0}], "samplers": [{"magFilter": 9729, "minFilter": 9986, "wrapS": 10497, "wrapT": 10497}], "scene": 0, "scenes": [{"nodes": [0]}], "textures": [{"sampler": 0, "source": 0}]}